<svg id="visual" viewBox="0 0 1820 1080" width="1820" height="1080" xmlns="http://www.w3.org/2000/svg" xmlns:xlink="http://www.w3.org/1999/xlink" version="1.1"><path d="M0 67L30.3 78.7C60.7 90.3 121.3 113.7 182 115.5C242.7 117.3 303.3 97.7 364 95.5C424.7 93.3 485.3 108.7 546 117.5C606.7 126.3 667.3 128.7 728 127.8C788.7 127 849.3 123 910 117C970.7 111 1031.3 103 1092 105.3C1152.7 107.7 1213.3 120.3 1274 117.5C1334.7 114.7 1395.3 96.3 1456 95.5C1516.7 94.7 1577.3 111.3 1638 120.7C1698.7 130 1759.3 132 1789.7 133L1820 134L1820 0L1789.7 0C1759.3 0 1698.7 0 1638 0C1577.3 0 1516.7 0 1456 0C1395.3 0 1334.7 0 1274 0C1213.3 0 1152.7 0 1092 0C1031.3 0 970.7 0 910 0C849.3 0 788.7 0 728 0C667.3 0 606.7 0 546 0C485.3 0 424.7 0 364 0C303.3 0 242.7 0 182 0C121.3 0 60.7 0 30.3 0L0 0Z" fill="#2e7ebc" stroke-linecap="round" stroke-linejoin="miter"></path></svg>